<?xml version="1.0" encoding="utf-8"?>
<!-- Generator: Adobe Illustrator 25.0.1, SVG Export Plug-In . SVG Version: 6.00 Build 0)  -->
<svg version="1.1" id="Capa_1" xmlns="http://www.w3.org/2000/svg" xmlns:xlink="http://www.w3.org/1999/xlink" x="0px" y="0px"
	 viewBox="0 0 431.9 431.9" style="enable-background:new 0 0 431.9 431.9;" xml:space="preserve">
<style type="text/css">
	.st0{fill:#E3F2FD;}
</style>
<g>
	<path class="st0" d="M423.9,152.1c4.4,0,8-3.6,8-8s-3.6-8-8-8h-24v-31.9h24c4.4,0,8-3.6,8-8s-3.6-8-8-8h-24V72
		c0-22.1-17.9-40-40-40h-16.1V8c0-4.4-3.6-8-8-8s-8,3.6-8,8v24h-31.9V8c0-4.4-3.6-8-8-8s-8,3.6-8,8v24h-31.9V8c0-4.4-3.6-8-8-8
		s-8,3.6-8,8v24H200V8c0-4.4-3.6-8-8-8s-8,3.6-8,8v24H152V8c0-4.4-3.6-8-8-8s-8,3.6-8,8v24h-31.9V8c0-4.4-3.6-8-8-8s-8,3.6-8,8v24
		H72c-22.1,0-40,17.9-40,40v16.1H8c-4.4,0-8,3.6-8,8s3.6,8,8,8h24v31.9H8c-4.4,0-8,3.6-8,8s3.6,8,8,8h24V184H8c-4.4,0-8,3.6-8,8
		s3.6,8,8,8h24v31.9H8c-4.4,0-8,3.6-8,8s3.6,8,8,8h24v31.9H8c-4.4,0-8,3.6-8,8s3.6,8,8,8h24v31.9H8c-4.4,0-8,3.6-8,8s3.6,8,8,8h24
		v16.1c0,22.1,17.9,40,40,40h16.1v24c0,4.4,3.6,8,8,8s8-3.6,8-8v-24H136v24c0,4.4,3.6,8,8,8s8-3.6,8-8v-24H184v24c0,4.4,3.6,8,8,8
		s8-3.6,8-8v-24h31.9v24c0,4.4,3.6,8,8,8s8-3.6,8-8v-24h31.9v24c0,4.4,3.6,8,8,8s8-3.6,8-8v-24h31.9v24c0,4.4,3.6,8,8,8s8-3.6,8-8
		v-24h16.1c22.1,0,40-17.9,40-40v-16.1h24c4.4,0,8-3.6,8-8s-3.6-8-8-8h-24v-31.9h24c4.4,0,8-3.6,8-8s-3.6-8-8-8h-24v-31.9h24
		c4.4,0,8-3.6,8-8s-3.6-8-8-8h-24V200h24c4.4,0,8-3.6,8-8s-3.6-8-8-8h-24v-31.9H423.9z M383.9,359.9c0,13.2-10.8,24-24,24H72
		c-13.2,0-24-10.8-24-24V72c0-13.2,10.8-24,24-24h287.9c13.2,0,24,10.8,24,24L383.9,359.9L383.9,359.9z"/>
	<path class="st0" d="M343.8,72.1H88.1c-8.8,0-16,7.2-16,16v255.7c0,8.8,7.2,16,16,16h255.7c8.8,0,16-7.2,16-16V88.1
		C359.8,79.3,352.6,72.1,343.8,72.1z M88.1,343.8V88.1h255.7l0,255.7L88.1,343.8L88.1,343.8z"/>
</g>
</svg>
