<svg xmlns="http://www.w3.org/2000/svg" width="36" height="24" viewBox="0 0 36 24">
  <g id="credit-card" transform="translate(0 -80)">
    <path id="Caminho_6" data-name="Caminho 6" d="M32.766,104H3.234A3.19,3.19,0,0,1,0,100.864V83.136A3.19,3.19,0,0,1,3.234,80H32.766A3.19,3.19,0,0,1,36,83.136v17.727A3.19,3.19,0,0,1,32.766,104ZM3.234,82.182a.971.971,0,0,0-.984.955v17.727a.971.971,0,0,0,.984.955H32.766a.971.971,0,0,0,.984-.955V83.136a.971.971,0,0,0-.984-.955Z" fill="#e3f2fd"/>
    <path id="Caminho_7" data-name="Caminho 7" d="M350.834,216.724a1.126,1.126,0,0,1-.884-1.823,2.255,2.255,0,0,0,0-2.788,1.126,1.126,0,0,1,1.769-1.394,4.507,4.507,0,0,1,0,5.577A1.124,1.124,0,0,1,350.834,216.724Z" transform="translate(-325.122 -121.507)" fill="#e3f2fd"/>
    <path id="Caminho_8" data-name="Caminho 8" d="M390.555,182.6a1.126,1.126,0,0,1-.838-1.878,6.194,6.194,0,0,0,0-8.27,1.126,1.126,0,1,1,1.676-1.5,8.446,8.446,0,0,1,0,11.278A1.123,1.123,0,0,1,390.555,182.6Z" transform="translate(-362.057 -84.583)" fill="#e3f2fd"/>
  </g>
</svg>
