<svg id="info" xmlns="http://www.w3.org/2000/svg" width="31.826" height="31.826" viewBox="0 0 31.826 31.826">
  <path id="Caminho_11" data-name="Caminho 11" d="M15.913,0A15.913,15.913,0,1,0,31.826,15.913,15.931,15.931,0,0,0,15.913,0Zm0,28.933a13.02,13.02,0,1,1,13.02-13.02A13.034,13.034,0,0,1,15.913,28.933Z" fill="#e3f2fd"/>
  <path id="Caminho_12" data-name="Caminho 12" d="M146.93,70a1.929,1.929,0,1,0,1.928,1.93A1.931,1.931,0,0,0,146.93,70Z" transform="translate(-131.018 -63.249)" fill="#e3f2fd"/>
  <path id="Caminho_13" data-name="Caminho 13" d="M151.447,140A1.447,1.447,0,0,0,150,141.447v8.68a1.447,1.447,0,1,0,2.893,0v-8.68A1.447,1.447,0,0,0,151.447,140Z" transform="translate(-135.534 -126.498)" fill="#e3f2fd"/>
</svg>
