<svg xmlns="http://www.w3.org/2000/svg" width="27.826" height="27.734" viewBox="0 0 27.826 27.734">
  <g id="logout" transform="translate(0 -0.85)">
    <g id="Grupo_4" data-name="Grupo 4" transform="translate(0 0.85)">
      <g id="Grupo_3" data-name="Grupo 3">
        <path id="Caminho_14" data-name="Caminho 14" d="M13.867,26.273H3.467a1.156,1.156,0,0,1-1.156-1.156V4.317A1.156,1.156,0,0,1,3.467,3.161h10.4a1.156,1.156,0,0,0,0-2.311H3.467A3.471,3.471,0,0,0,0,4.317v20.8a3.471,3.471,0,0,0,3.467,3.467h10.4a1.156,1.156,0,0,0,0-2.311Z" transform="translate(0 -0.85)" fill="#e3f2fd"/>
      </g>
    </g>
    <g id="Grupo_6" data-name="Grupo 6" transform="translate(9.245 6.628)">
      <g id="Grupo_5" data-name="Grupo 5">
        <path id="Caminho_15" data-name="Caminho 15" d="M188.337,114.431l-7.026-6.933a1.155,1.155,0,1,0-1.622,1.646l5.021,4.955H171.256a1.156,1.156,0,0,0,0,2.311H184.71l-5.021,4.955a1.155,1.155,0,1,0,1.622,1.645l7.026-6.933a1.155,1.155,0,0,0,0-1.645Z" transform="translate(-170.1 -107.165)" fill="#e3f2fd"/>
      </g>
    </g>
  </g>
</svg>
