<svg xmlns="http://www.w3.org/2000/svg" xmlns:xlink="http://www.w3.org/1999/xlink" width="30" height="40" viewBox="0 0 30 40">
  <defs>
    <clipPath id="clip-path">
      <rect width="30" height="40" fill="none"/>
    </clipPath>
  </defs>
  <g id="Repetição_de_grade_1" data-name="Repetição de grade 1" clip-path="url(#clip-path)">
    <g transform="translate(-729 -721)">
      <path id="password" d="M29.25,15H28V10A10,10,0,0,0,8,10v5H6.75A3.755,3.755,0,0,0,3,18.75v17.5A3.755,3.755,0,0,0,6.75,40h22.5A3.755,3.755,0,0,0,33,36.25V18.75A3.755,3.755,0,0,0,29.25,15ZM11.333,10a6.667,6.667,0,1,1,13.333,0v5H11.333Zm8.333,17.87v3.8a1.667,1.667,0,0,1-3.333,0v-3.8a3.333,3.333,0,1,1,3.333,0Z" transform="translate(726 721)" fill="#3066be"/>
    </g>
  </g>
</svg>
