<?xml version="1.0" encoding="utf-8"?>
<!-- Generator: Adobe Illustrator 25.0.1, SVG Export Plug-In . SVG Version: 6.00 Build 0)  -->
<svg version="1.1" id="Camada_1" xmlns="http://www.w3.org/2000/svg" xmlns:xlink="http://www.w3.org/1999/xlink" x="0px" y="0px"
	 viewBox="0 0 27.8 27.7" style="enable-background:new 0 0 27.8 27.7;" xml:space="preserve">
<style type="text/css">
	.st0{fill:#E3F2FD;}
</style>
<g>
	<g>
		<path class="st0" d="M23.8,17.9c-1.5-1.5-3.3-2.6-5.3-3.3C20.6,13.2,22,10.8,22,8c0-4.4-3.6-8-8-8s-8,3.6-8,8
			c0,2.7,1.4,5.2,3.5,6.6c-2,0.7-3.8,1.8-5.3,3.3C1.4,20.5,0,24,0,27.7h2.2C2.2,21.3,7.4,16,13.9,16s11.7,5.2,11.7,11.7h2.2
			C27.8,24,26.4,20.5,23.8,17.9z M13.9,13.9C10.7,13.9,8,11.2,8,8s2.6-5.9,5.9-5.9s5.9,2.6,5.9,5.9S17.1,13.9,13.9,13.9z"/>
	</g>
</g>
</svg>
