<svg xmlns="http://www.w3.org/2000/svg" width="33" height="39.996" viewBox="0 0 33 39.996">
  <g id="user" transform="translate(0 0)">
    <path id="Caminho_1" data-name="Caminho 1" d="M96.481,19.266a9.055,9.055,0,0,0,6.681-2.822,9.413,9.413,0,0,0,2.768-6.811,9.415,9.415,0,0,0-2.768-6.811,9.319,9.319,0,0,0-13.361,0,9.414,9.414,0,0,0-2.768,6.811A9.413,9.413,0,0,0,89.8,16.444,9.058,9.058,0,0,0,96.481,19.266Zm0,0" transform="translate(-80.233)" fill="#3066be"/>
    <path id="Caminho_2" data-name="Caminho 2" d="M32.92,258.752a24.045,24.045,0,0,0-.32-2.527,20.1,20.1,0,0,0-.615-2.541,12.622,12.622,0,0,0-1.033-2.37,8.931,8.931,0,0,0-1.558-2.053,6.859,6.859,0,0,0-2.238-1.422,7.658,7.658,0,0,0-2.857-.523,2.882,2.882,0,0,0-1.548.664c-.464.306-1.007.66-1.613,1.052a9.191,9.191,0,0,1-2.087.93,8.019,8.019,0,0,1-5.105,0,9.172,9.172,0,0,1-2.086-.929c-.6-.388-1.143-.742-1.614-1.052a2.878,2.878,0,0,0-1.548-.664,7.648,7.648,0,0,0-2.856.523A6.853,6.853,0,0,0,3.6,249.261a8.934,8.934,0,0,0-1.557,2.052,12.648,12.648,0,0,0-1.033,2.37A20.145,20.145,0,0,0,.4,256.224a23.962,23.962,0,0,0-.32,2.528c-.053.765-.079,1.56-.079,2.362a6.681,6.681,0,0,0,1.951,5.025,6.977,6.977,0,0,0,5.027,1.854H26.023a6.976,6.976,0,0,0,5.026-1.854A6.678,6.678,0,0,0,33,261.114c0-.806-.027-1.6-.08-2.362Zm0,0" transform="translate(0 -227.996)" fill="#3066be"/>
  </g>
</svg>
